<svg width="823" height="140" viewBox="0 0 823 140" fill="none" xmlns="http://www.w3.org/2000/svg">
    <path fill-rule="evenodd" clip-rule="evenodd" d="M67.932.792c37.432 0 67.786 31.15 67.752 69.52-.06 37.707-30.666 68.69-67.925 68.683-37.446 0-67.799-31.149-67.759-69.52C.007 31.782 30.66.785 67.932.792z" fill="#05A2B3"/>
    <path fill-rule="evenodd" clip-rule="evenodd" d="M112.464 38.63c-.539 1.018-31.77 44.976-49.815 65.431-4.271 4.835-11.437 4.961-15.702-.252-9.867-12.05-17.838-22.511-27.093-37.048-1.277-1.995-2.854-4.875-.566-7.395 0 0 2.522-2.807 7.985 1.05 6.94 4.895 14.325 9.677 21.138 14.219 3.899 2.593 6.387 2.82 9.98.033C73.528 62.963 107.46 37.72 109.39 36.542c3.406-2.068 3.839.52 3.027 2.089h.047z" fill="#fff"/>
    <path fill-rule="evenodd" clip-rule="evenodd" d="M112.464 38.63c-.539 1.018-31.77 44.976-49.815 65.431-4.271 4.835-11.437 4.961-15.702-.252-9.867-12.05-17.838-22.511-27.093-37.048-1.277-1.995-2.854-4.875-.566-7.395 0 0 2.522-2.807 7.985 1.05 6.94 4.895 14.325 9.677 21.138 14.219 3.899 2.593 6.387 2.82 9.98.033C73.528 62.963 107.46 37.72 109.39 36.542c3.406-2.068 3.839.52 3.027 2.089h.047z" fill="#fff"/>
    <path d="M795.702 62.199c-1.77.525-3.42 1.39-4.857 2.547a10.97 10.97 0 0 0-3.014 3.99 13.184 13.184 0 0 0-1.038 5.32 11.805 11.805 0 0 0 1.271 5.646 11.385 11.385 0 0 0 3.38 3.93 14.53 14.53 0 0 0 4.903 2.288 23.525 23.525 0 0 0 11.81 0 14.286 14.286 0 0 0 4.877-2.288 11.177 11.177 0 0 0 3.327-3.923 12.488 12.488 0 0 0 1.224-5.76 12.255 12.255 0 0 0-1.251-5.712 11.299 11.299 0 0 0-3.327-3.923 14.642 14.642 0 0 0-4.883-2.288 22.415 22.415 0 0 0-5.875-.752 22.06 22.06 0 0 0-6.521.892l-.026.033zm-11.784 19.525a17.221 17.221 0 0 1-1.576-7.515 18.291 18.291 0 0 1 1.55-7.74 15.64 15.64 0 0 1 4.278-5.587 18.493 18.493 0 0 1 6.347-3.365 27.013 27.013 0 0 1 15.303 0 18.831 18.831 0 0 1 6.295 3.325 15.824 15.824 0 0 1 4.304 5.546 19.334 19.334 0 0 1 0 15.329 15.864 15.864 0 0 1-4.304 5.54 18.42 18.42 0 0 1-6.295 3.325 26.111 26.111 0 0 1-7.605 1.09 25.79 25.79 0 0 1-7.678-1.117 18.773 18.773 0 0 1-6.32-3.325 16.066 16.066 0 0 1-4.305-5.486l.006-.02zm36.901 34.108-.074-.213a14.635 14.635 0 0 0-2.92-4.768 14.89 14.89 0 0 0-4.265-3.172 23.809 23.809 0 0 0-5.084-1.802l-.831-.186.073 5.32.519.12c1.335.302 2.624.78 3.832 1.423a11.838 11.838 0 0 1 2.981 2.287 9.957 9.957 0 0 1 1.949 3.119c.379 1.134.568 2.323.559 3.518a11.576 11.576 0 0 1-1.33 5.812 10.41 10.41 0 0 1-3.453 3.671 15.299 15.299 0 0 1-4.957 1.995c-3.852.833-7.84.799-11.677-.099a14.791 14.791 0 0 1-4.851-2.155 10.594 10.594 0 0 1-3.326-3.644 10.814 10.814 0 0 1-1.211-5.274 15.868 15.868 0 0 1 .452-3.943 9.545 9.545 0 0 1 1.231-2.661c1.211-1.775 3.327-3.005 6.208-3.677l.539-.113v-.392h.066v-4.815l-.771.12a15.426 15.426 0 0 0-5.15 1.702 12.407 12.407 0 0 0-3.779 3.165 12.848 12.848 0 0 0-1.923 3.372c-.217.49-.406.992-.566 1.503a18.483 18.483 0 0 0-.758 5.38 21.578 21.578 0 0 0 1.071 6.936 14.116 14.116 0 0 0 3.506 5.613 16.498 16.498 0 0 0 6.181 3.724 27.559 27.559 0 0 0 9.076 1.33c2.53.012 5.053-.285 7.511-.885a18.237 18.237 0 0 0 6.335-2.859 14.493 14.493 0 0 0 4.371-5.114 16.149 16.149 0 0 0 1.617-7.481 18.473 18.473 0 0 0-1.085-6.591 2.673 2.673 0 0 0-.106-.239l.04-.027zm-37.333-75.027h37.379v-.332h.18v-4.788h-28.484l28.304-10.441v-.419l.18-.066v-4.17l-27.852-10.241h27.672v-.665h.18V4.895H783.3v6.357l.186.06v.559L813.5 22.83l-30.2 11.225v6.391h.186V40.805zm-55.437-4.828c0-7.228 0-13.486 6.847-13.486 6.846 0 6.839 7.98 6.839 13.879 0 2.932.985 3.91 3.913 3.91h15.456c2.934 0 3.912-1.955 3.912-4.881 0-21.114-10.167-35.193-31.098-35.193-19.555 0-29.336 13.094-29.336 30.69 0 15.442 1.957 22.678 20.733 44.763 10.366 12.123 16.234 20.136 16.234 27.565 0 7.228 0 13.479-6.846 13.479-6.847 0-6.84-7.98-6.84-13.878 0-2.933-.985-3.91-3.912-3.91h-15.463c-2.934 0-3.912 1.954-3.912 4.887 0 21.121 10.166 35.193 31.098 35.193 19.555 0 29.335-13.094 29.335-30.697 0-15.435-1.756-22.677-20.532-44.763-10.373-12.116-16.434-20.13-16.434-27.558h.006zm-78.411 102.04h42.216c2.935 0 3.913-.977 3.913-3.91v-14.471c0-2.933-.978-3.904-3.913-3.904h-18.776c-3.912 0-3.912 0-3.912-3.91V80.939c0-3.91 0-3.91 3.912-3.91h18.776c2.935 0 3.913-.978 3.913-3.91V58.647c0-2.926-.978-3.904-3.913-3.904h-18.776c-3.912 0-3.912 0-3.912-3.91V27.372c0-3.904 0-3.904 3.912-3.904h18.776c2.935 0 3.913-.977 3.913-3.91V5.094c0-2.933-.978-3.91-3.913-3.91h-42.236c-2.941 0-3.912.977-3.912 3.91v129.013c0 3.91 1.956 3.91 3.912 3.91h.02zM610.522 5.094v95.589c0 9.769 0 16.02-6.846 16.02s-6.846-6.251-6.846-16.02V5.094c0-2.933-.979-3.91-3.913-3.91h-15.642c-2.934 0-3.912.977-3.912 3.91v94.798c0 29.52 10.758 39.103 30.313 39.103s30.293-9.783 30.293-39.103V5.094c0-2.933-.971-3.91-3.912-3.91h-15.636c-2.934 0-3.912.977-3.912 3.91h.013zm-87.227 132.923h41.252c2.934 0 3.919-.977 3.919-3.91v-14.471c0-2.933-.985-3.904-3.919-3.904h-17.585c-4.105 0-4.105 0-4.105-4.103V5.094c0-2.933-.972-3.91-3.919-3.91h-15.643c-2.934 0-3.905.977-3.905 3.91v129.013c0 2.933.971 3.91 3.905 3.91zM470.5 38.325c0-9.77 0-16.034 6.847-16.034 6.846 0 6.846 6.265 6.846 16.034v5.859c0 2.939.971 3.91 3.912 3.91h15.636c2.941 0 3.912-.971 3.912-3.91v-5.088C507.653 9.77 496.901 0 477.347 0c-19.555 0-30.34 9.583-30.34 39.096V99.88c0 29.52 10.758 39.102 30.32 39.102 19.561 0 30.306-9.782 30.306-39.102v-4.882c0-2.932-.971-3.91-3.912-3.91h-15.636c-2.941 0-3.912.978-3.912 3.91v5.673c0 9.769 0 16.02-6.846 16.02-6.847 0-6.847-6.251-6.847-16.02V38.325h.02zM398.144 26.4c0-3.91 0-3.91 3.912-3.91 9.774 0 9.774 9.975 9.774 19.95v8.792c0 9.975 0 19.95-9.774 19.95-3.912 0-3.912 0-3.912-3.518V26.401zm37.153 27.173v-13.3c0-29.328-13.687-39.097-33.268-39.097h-23.447c-2.934 0-3.912.978-3.912 3.91V134.1c0 2.933.785 3.91 3.912 3.91h15.649c2.735 0 3.913-.977 3.913-3.91V96.38c0-3.91 0-3.91 3.912-3.91 19.554 0 33.267-9.775 33.267-38.896h-.026zm-95.81-14.857v61.966c0 9.769 0 16.02-6.847 16.02-6.846 0-6.84-6.251-6.84-16.02V38.717c0-9.975 0-16.226 6.84-16.226s6.847 6.258 6.847 16.226zm23.466 61.181V39.303c0-29.327-10.752-39.096-30.313-39.096s-30.313 9.576-30.313 39.096v60.59c0 29.52 10.759 39.103 30.313 39.103 19.555 0 30.313-9.783 30.313-39.103v.007zm-91.931 38.119h15.636c1.956 0 3.912 0 3.912-3.91V5.094c0-2.933-.978-3.91-3.912-3.91h-15.636c-2.927 0-3.905.977-3.905 3.91v45.74c0 3.91 0 3.91-3.912 3.91h-5.862c-3.912 0-3.912 0-3.912-3.91V5.094c0-2.933-.978-3.91-3.913-3.91h-15.655c-2.928 0-3.912.977-3.912 3.91v129.013c0 3.91 1.996 3.91 3.912 3.91h15.655c1.957 0 3.913 0 3.913-3.91V80.906c0-3.91 0-3.91 3.912-3.91h5.862c3.912 0 3.912 0 3.912 3.91v53.201c0 3.91 1.956 3.91 3.905 3.91zm-86.827-102.04c0-7.228 0-13.486 6.853-13.486s6.846 7.98 6.846 13.879c0 2.932.972 3.91 3.906 3.91h15.449c2.934 0 3.906-1.955 3.906-4.881 0-21.114-10.16-35.193-31.085-35.193-19.568 0-29.342 13.094-29.342 30.69 0 15.442 1.963 22.678 20.739 44.763 10.359 12.123 16.228 20.136 16.228 27.565 0 7.228 0 13.479-6.847 13.479-6.846 0-6.846-7.98-6.846-13.878 0-2.933-.978-3.91-3.906-3.91H164.64c-2.934 0-3.912 1.954-3.912 4.887 0 21.121 10.166 35.193 31.098 35.193 19.555 0 29.329-13.094 29.329-30.697 0-15.435-1.757-22.677-20.533-44.763-10.359-12.116-16.427-20.13-16.427-27.558zm583.243 95.955h7.066v7.063h-7.066v-7.063z" fill="#1D1D1B"/>
</svg>
